<svg xmlns="http://www.w3.org/2000/svg" xmlns:xlink="http://www.w3.org/1999/xlink" width="59.519pt" height="57.516" viewBox="0 0 59.519 43.137">
    <defs>
        <symbol overflow="visible" id="a">
            <path d="M6.109375 0v-6.921875H5.21875v3.03125H1.828125v-3.03125H.9375V0h.890625v-3.296875H5.21875V0zm0 0"/>
        </symbol>
        <symbol overflow="visible" id="b">
            <path d="M1.5625 0v-4.421875h-.75V0zm.078125-5.640625v-.890625H.75v.890625zm0 0"/>
        </symbol>
        <symbol overflow="visible" id="c">
            <path d="M4.96875-1.890625c0-.640625-.296875-1.125-.515625-1.359375-.46875-.5-.796875-.59375-1.71875-.8125C2.15625-4.203125 2-4.25 1.6875-4.5c-.0625-.0625-.34375-.359375-.34375-.796875 0-.578125.546875-1.1875 1.453125-1.1875.84375 0 1.3125.328125 1.6875.640625l.15625-.796875c-.546875-.328125-1.109375-.5-1.828125-.5-1.390625 0-2.25.984375-2.25 1.96875 0 .421875.140625.84375.53125 1.265625.421875.453125.859375.5625 1.453125.703125.84375.21875.9375.25 1.21875.484375.203125.171875.421875.5.421875.9375 0 .65625-.546875 1.3125-1.453125 1.3125-.40625 0-1.3125-.09375-2.140625-.8125l-.15625.8125c.875.546875 1.671875.6875 2.296875.6875 1.328125 0 2.234375-1 2.234375-2.109375zm0 0"/>
        </symbol>
        <symbol overflow="visible" id="d">
            <path d="M5.796875-4.90625c0-1.0625-.984375-2.015625-2.359375-2.015625H.953125V0h.890625v-2.875h1.671875c1.234375 0 2.28125-.90625 2.28125-2.03125zM5-4.90625c0 .796875-.640625 1.453125-1.78125 1.453125H1.8125v-2.90625h1.40625C4.3125-6.359375 5-5.75 5-4.90625zm0 0"/>
        </symbol>
        <symbol overflow="visible" id="e">
            <path d="M6.359375 0l-2.59375-6.921875H2.875L.28125 0h.734375l.765625-2.03125H4.6875L5.4375 0zM4.46875-2.59375H2c.5-1.421875.140625-.375.640625-1.796875.203125-.59375.515625-1.4375.59375-1.8125.03125.140625.09375.390625.328125 1.046875zm0 0"/>
        </symbol>
        <symbol overflow="visible" id="f">
            <path d="M6.15625 0L4.171875-3.25C5.203125-3.546875 5.875-4.25 5.875-5.0625c0-.984375-1.09375-1.859375-2.515625-1.859375H.953125V0H1.8125v-3.15625h1.578125L5.265625 0zM5.0625-5.0625c0 .703125-.640625 1.296875-1.8125 1.296875H1.8125v-2.59375H3.25c1.15625 0 1.8125.59375 1.8125 1.296875zm0 0"/>
        </symbol>
        <symbol overflow="visible" id="g">
            <path d="M5.859375-.453125l-.0625-.6875C5.5-.9375 5.21875-.75 4.875-.640625c-.3125.109375-.671875.109375-1 .109375-.65625 0-1.25-.34375-1.65625-.859375-.453125-.578125-.671875-1.328125-.671875-2.0625 0-.75.21875-1.5.671875-2.09375.40625-.5 1-.859375 1.65625-.859375.296875 0 .59375.03125.890625.125s.578125.234375.84375.421875l.125-.8125c-.296875-.125-.59375-.21875-.921875-.28125-.3125-.0625-.625-.078125-.9375-.078125-.890625 0-1.6875.390625-2.28125 1.046875-.609375.6875-.9375 1.59375-.9375 2.53125 0 .921875.328125 1.828125.9375 2.515625C2.1875-.296875 2.984375.109375 3.875.109375 4.21875.109375 4.5625.09375 4.90625 0s.640625-.265625.953125-.453125zm0 0"/>
        </symbol>
    </defs>
    <path d="M33.710938 37.699219c.410156-.632813-.28125-1.3125-1.546875-1.515625-1.26172-.207031-2.617188.140625-3.03125.769531-.410157.632813.28125 1.3125 1.546874 1.515625 1.26172.207031 2.621094-.140625 3.03125-.769531zm-10.375-1.6875l5.191406.84375" fill="none" stroke-width="1.2756" stroke-linecap="round" stroke="#000" stroke-miterlimit="10"/>
    <path d="M30.621094 32.945313c.410156-.632813-.28125-1.3125-1.542969-1.515625-1.265625-.207032-2.621094.140625-3.03125.76953-.410156.632813.28125 1.3125 1.542969 1.515626 1.261718.20703 2.621093-.140625 3.03125-.769531zm0 0" stroke-width="1.2756" stroke-linecap="round" stroke="#000" stroke-miterlimit="10"/>
    <path d="M23.335938 36.011719l3.20703-2.207032" fill="none" stroke-width="1.2756" stroke-linecap="round" stroke="#000" stroke-miterlimit="10"/>
    <path d="M17.535156 37.699219c.410157-.632813-.28125-1.3125-1.546875-1.515625-1.261719-.207031-2.617187.140625-3.03125.769531-.410156.632813.28125 1.3125 1.546875 1.515625 1.26172.207031 2.621094-.140625 3.03125-.769531zm0 0" stroke-width="1.2756" stroke-linecap="round" stroke="#000" stroke-miterlimit="10"/>
    <path d="M23.335938 36.011719l-5.1875.84375" fill="none" stroke-width="1.2756" stroke-linecap="round" stroke="#000" stroke-miterlimit="10"/>
    <path d="M25.621094 40.636719c.410156-.632813-.28125-1.3125-1.542969-1.515625-1.265625-.207032-2.621094.140625-3.03125.773437-.410156.628907.28125 1.308594 1.542969 1.515625 1.265625.203125 2.621094-.140625 3.03125-.773437zm0 0" stroke-width="1.2756" stroke-linecap="round" stroke="#000" stroke-miterlimit="10"/>
    <path d="M23.335938 36.011719v2.730469m-.695313.039062L5.36328 1.726562m21.683595 29.464844L11.160156 14.15625m3.953125 21.648438L13.695312 19.59375m.621094 7.09375l-1.800781 3.863281m4.527344-3.773437l-.367188 4.23828m2.167969-.386718l3.480469 2.441407m-2.578125-9.707032l.957031 4.144531m1.621094-1.378906l4.070312 1.242188M7.886719 7.136719v8.503906" fill="none" stroke-width="1.2756" stroke-linecap="round" stroke="#000" stroke-miterlimit="10"/>
    <use xlink:href="#a" x="15.936" y="13.481"/>
    <use xlink:href="#b" x="22.99251" y="13.481"/>
    <use xlink:href="#c" x="25.372575" y="13.481"/>
    <use xlink:href="#d" x="30.907795" y="13.481"/>
    <use xlink:href="#e" x="36.446005" y="13.481"/>
    <use xlink:href="#f" x="43.08807" y="13.481"/>
    <use xlink:href="#g" x="49.521917" y="13.481"/>
</svg>
