<svg xmlns="http://www.w3.org/2000/svg" xmlns:xlink="http://www.w3.org/1999/xlink" width="148.121pt" height="178.48" viewBox="0 0 148.121 133.86">
    <defs>
        <symbol overflow="visible" id="a">
            <path d="M14.21875 0v-17.203125h-2.078125V-9.6875h-7.875v-7.515625H2.1875V0h2.078125v-8.171875h7.875V0zm0 0"/>
        </symbol>
        <symbol overflow="visible" id="b">
            <path d="M3.671875 0v-10.65625h-1.84375V0zM3.8125-13.984375V-16.0625H1.734375v2.078125zm0 0"/>
        </symbol>
        <symbol overflow="visible" id="c">
            <path d="M11.625-4.734375c0-.984375-.296875-2.25-1.34375-3.421875C9.265625-9.265625 8.375-9.515625 6.34375-10.0625c-1.171875-.296875-1.90625-.5-2.53125-1.265625-.421875-.546875-.640625-1.0625-.640625-1.734375 0-1.390625 1.1875-2.890625 3.375-2.890625 1.078125 0 2.5.21875 3.9375 1.5625l.34375-1.984375c-1.09375-.65625-2.28125-1.21875-4.28125-1.21875-3.203125 0-5.265625 2.359375-5.265625 4.75 0 .953125.28125 2.015625 1.25 3.109375C3.5-8.65625 4.578125-8.34375 5.96875-8c.578125.140625 1.546875.421875 1.71875.484375 1.375.546875 2.046875 1.8125 2.046875 3 0 1.5625-1.203125 3.234375-3.359375 3.234375-.75 0-2.9375-.125-4.984375-2.015625l-.34375 1.953125C3.078125.15625 5.28125.390625 6.390625.390625 9.4375.390625 11.625-2 11.625-4.734375zm0 0"/>
        </symbol>
        <symbol overflow="visible" id="d">
            <path d="M13.5625-12.1875c0-2.6875-2.34375-5.015625-5.5625-5.015625H2.203125V0H4.28125v-7.15625h3.875c2.96875 0 5.40625-2.3125 5.40625-5.03125zm-1.96875 0c0 1.6875-1.15625 3.59375-4.140625 3.59375h-3.21875v-7.21875h3.21875c2.875 0 4.140625 1.8125 4.140625 3.625zm0 0"/>
        </symbol>
        <symbol overflow="visible" id="e">
            <path d="M14.34375 0L9.765625-8.078125l.046875-.03125C13.671875-9.4375 13.703125-12.125 13.703125-12.59375c0-2.34375-2.375-4.609375-5.953125-4.609375H2.203125V0h2.03125v-7.859375H7.875L12.265625 0zM11.75-12.59375c0 1.34375-1 3.21875-4.265625 3.21875h-3.25v-6.4375h3.25c3.140625 0 4.265625 1.78125 4.265625 3.21875zm0 0"/>
        </symbol>
        <symbol overflow="visible" id="f">
            <path d="M13.5625-1.171875l-.15625-1.671875c-.671875.46875-1.3125.9375-2.109375 1.1875-.765625.25-1.5625.265625-2.34375.265625-1.515625 0-2.875-.859375-3.78125-2.078125C4.0625-4.9375 3.5625-6.71875 3.5625-8.5c0-1.8125.5-3.625 1.609375-5.0625.90625-1.1875 2.265625-2.078125 3.78125-2.078125.71875 0 1.40625.078125 2.078125.296875.6875.203125 1.3125.578125 1.921875.953125L13.3125-16.375c-.703125-.28125-1.421875-.5-2.15625-.65625-.71875-.140625-1.46875-.1875-2.203125-.1875-2.046875 0-3.921875.984375-5.265625 2.546875C2.234375-12.953125 1.515625-10.75 1.515625-8.5c0 2.234375.71875 4.4375 2.171875 6.140625 1.34375 1.5625 3.21875 2.5625 5.265625 2.5625.8125 0 1.625-.03125 2.421875-.25.796875-.25 1.484375-.671875 2.1875-1.125zm0 0"/>
        </symbol>
    </defs>
    <path d="M145.957031 120.695312c1.367188-2.105468-.9375-4.367187-5.148437-5.050781-4.210938-.683594-8.738281.46875-10.105469 2.574219-1.367187 2.105469.9375 4.367187 5.148438 5.050781 4.210937.683594 8.734375-.46875 10.105468-2.574219zm0 0" fill="none" stroke-width="1.59404" stroke-linecap="round" stroke="#000" stroke-miterlimit="10"/>
    <path d="M111.371094 115.078125l18.574219 3.015625" fill="none" stroke-width=".79701" stroke-linecap="round" stroke="#000" stroke-miterlimit="10"/>
    <path d="M135.65625 104.847656c1.371094-2.105469-.933594-4.367187-5.144531-5.050781-4.214844-.683594-8.738281.46875-10.105469 2.574219-1.367187 2.105468.9375 4.367187 5.148438 5.050781 4.210937.6875 8.734375-.464844 10.101562-2.574219zm0 0" stroke-width="1.59404" stroke-linecap="round" stroke="#000" stroke-miterlimit="10"/>
    <path d="M111.371094 115.078125l11.472656-7.898438" fill="none" stroke-width=".79701" stroke-linecap="round" stroke="#000" stroke-miterlimit="10"/>
    <path d="M92.035156 120.695312c1.371094-2.105468-.933593-4.367187-5.148437-5.050781-4.210938-.683594-8.734375.46875-10.101563 2.574219-1.371093 2.105469.933594 4.367187 5.148438 5.050781 4.210937.683594 8.734375-.46875 10.101562-2.574219zm0 0" stroke-width="1.59404" stroke-linecap="round" stroke="#000" stroke-miterlimit="10"/>
    <path d="M111.371094 115.078125l-18.550781 3.011719" fill="none" stroke-width=".79701" stroke-linecap="round" stroke="#000" stroke-miterlimit="10"/>
    <path d="M118.996094 130.488281c1.367187-2.105469-.9375-4.367187-5.148438-5.050781-4.210937-.683594-8.734375.46875-10.105468 2.574219-1.367188 2.105468.9375 4.367187 5.148437 5.050781 4.214844.683594 8.738281-.46875 10.105469-2.574219zm0 0" stroke-width="1.59404" stroke-linecap="round" stroke="#000" stroke-miterlimit="10"/>
    <path d="M111.371094 115.078125v9.757812" fill="none" stroke-width=".79701" stroke-linecap="round" stroke="#000" stroke-miterlimit="10"/>
    <path d="M109.363281 124.949219L51.46875.796875m72.832031 98.8125L70.789063 42.226562m13.234375 72.820313L79.238281 60.34375m2.070313 23.644531l-6.003906 12.878906M90.40625 84.289062l-1.238281 14.128907m7.226562-1.28125l11.613282 8.128906m-8.597657-32.347656l3.191407 13.8125m5.394531-4.605469l13.578125 4.152344M59.875 18.824219v28.34375m0-15.589844l5.949219-.003906" fill="none" stroke-width="1.59404" stroke-linecap="round" stroke="#000" stroke-miterlimit="10"/>
    <use xlink:href="#a" x="7.272" y="35.831"/>
    <use xlink:href="#b" x="23.708326" y="35.831"/>
    <use xlink:href="#c" x="29.225934" y="35.831"/>
    <use xlink:href="#d" x="42.177194" y="35.831"/>
    <use xlink:href="#e" x="69.69" y="35.831"/>
    <use xlink:href="#f" x="84.720897" y="35.831"/>
</svg>
