<svg xmlns="http://www.w3.org/2000/svg" xmlns:xlink="http://www.w3.org/1999/xlink" width="129.464pt" height="178.48" viewBox="0 0 129.464 133.86">
    <defs>
        <symbol overflow="visible" id="a">
            <path d="M4.3125 1.484375V-10.65625H2.484375V1.703125c0 1.5-1.046875 1.734375-1.71875 1.734375S-.46875 3.203125-.9375 2.671875l-.5 1.515625c.796875.5 1.765625.84375 2.796875.84375 1.5625 0 2.953125-1.34375 2.953125-3.546875zm0-15.46875V-16.0625H2.234375v2.078125zm0 0"/>
        </symbol>
        <symbol overflow="visible" id="b">
            <path d="M11.625-4.734375c0-.984375-.296875-2.25-1.34375-3.421875C9.265625-9.265625 8.375-9.515625 6.34375-10.0625c-1.171875-.296875-1.90625-.5-2.53125-1.265625-.421875-.546875-.640625-1.0625-.640625-1.734375 0-1.390625 1.1875-2.890625 3.375-2.890625 1.078125 0 2.5.21875 3.9375 1.5625l.34375-1.984375c-1.09375-.65625-2.28125-1.21875-4.28125-1.21875-3.203125 0-5.265625 2.359375-5.265625 4.75 0 .953125.28125 2.015625 1.25 3.109375C3.5-8.65625 4.578125-8.34375 5.96875-8c.578125.140625 1.546875.421875 1.71875.484375 1.375.546875 2.046875 1.8125 2.046875 3 0 1.5625-1.203125 3.234375-3.359375 3.234375-.75 0-2.9375-.125-4.984375-2.015625l-.34375 1.953125C3.078125.15625 5.28125.390625 6.390625.390625 9.4375.390625 11.625-2 11.625-4.734375zm0 0"/>
        </symbol>
        <symbol overflow="visible" id="c">
            <path d="M11.15625-5.359375c0-2.921875-1.484375-5.5-3.625-5.5-1.234375 0-2.71875.453125-3.84375 1.34375v-1.140625H1.859375V4.828125h1.875v-5.9375c.828125.78125 1.9375 1.3125 3.125 1.3125 2.3125 0 4.296875-2.390625 4.296875-5.5625zm-1.890625 0c0 2.453125-1.6875 4.046875-3.34375 4.046875-.5 0-1.015625-.125-1.515625-.546875-.671875-.59375-.671875-.96875-.671875-1.3125v-4.875c.203125-.296875 1.046875-1.25 2.40625-1.25 1.734375 0 3.125 1.78125 3.125 3.9375zm0 0"/>
        </symbol>
        <symbol overflow="visible" id="d">
            <path d="M7.578125-9.21875v-1.640625C6-10.828125 4.515625-10.03125 3.625-8.75v-1.984375H1.859375V0H3.6875v-5.28125c0-2.328125 1.71875-3.890625 3.890625-3.9375zm0 0"/>
        </symbol>
        <symbol overflow="visible" id="e">
            <path d="M9.6875-.984375L9.546875-2.625c-1.078125.8125-2.3125 1.265625-3.65625 1.265625-1.921875 0-3.1875-1.6875-3.1875-4 0-1.78125.8125-4.03125 3.296875-4.03125 1.359375 0 2.125.265625 3.265625 1.046875l.28125-1.546875c0-.171875-1.140625-.671875-1.4375-.765625-.828125-.296875-1.859375-.296875-2.140625-.296875-3.21875 0-5.15625 2.796875-5.15625 5.625 0 2.96875 2.15625 5.53125 5.0625 5.53125 1.65625 0 2.84375-.546875 3.8125-1.1875zm0 0"/>
        </symbol>
    </defs>
    <path d="M127.296875 120.695312c1.371094-2.105468-.933594-4.367187-5.144531-5.050781-4.214844-.683594-8.738282.46875-10.105469 2.574219-1.367188 2.105469.9375 4.367187 5.148437 5.050781 4.210938.683594 8.734375-.46875 10.101563-2.574219zm0 0" fill="none" stroke-width="1.59404" stroke-linecap="round" stroke="#000" stroke-miterlimit="10"/>
    <path d="M92.714844 115.078125l18.574218 3.015625" fill="none" stroke-width=".79701" stroke-linecap="round" stroke="#000" stroke-miterlimit="10"/>
    <path d="M117 104.847656c1.371094-2.105469-.933594-4.367187-5.148438-5.050781-4.210937-.683594-8.734375.46875-10.101562 2.574219-1.371094 2.105468.9375 4.367187 5.148437 5.050781 4.210938.6875 8.734375-.464844 10.101563-2.574219zm0 0" stroke-width="1.59404" stroke-linecap="round" stroke="#000" stroke-miterlimit="10"/>
    <path d="M92.714844 115.078125l11.472656-7.898438" fill="none" stroke-width=".79701" stroke-linecap="round" stroke="#000" stroke-miterlimit="10"/>
    <path d="M73.378906 120.695312c1.367188-2.105468-.9375-4.367187-5.148437-5.050781-4.210938-.683594-8.734375.46875-10.101563 2.574219-1.371094 2.105469.933594 4.367187 5.148438 5.050781 4.210937.683594 8.734375-.46875 10.101562-2.574219zm0 0" stroke-width="1.59404" stroke-linecap="round" stroke="#000" stroke-miterlimit="10"/>
    <path d="M92.714844 115.078125l-18.550782 3.011719" fill="none" stroke-width=".79701" stroke-linecap="round" stroke="#000" stroke-miterlimit="10"/>
    <path d="M100.339844 130.488281c1.367187-2.105469-.9375-4.367187-5.148438-5.050781-4.210937-.683594-8.734375.46875-10.105469 2.574219-1.367187 2.105468.9375 4.367187 5.148438 5.050781 4.210937.683594 8.734375-.46875 10.105469-2.574219zm0 0" stroke-width="1.59404" stroke-linecap="round" stroke="#000" stroke-miterlimit="10"/>
    <path d="M92.714844 115.078125v9.757812" fill="none" stroke-width=".79701" stroke-linecap="round" stroke="#000" stroke-miterlimit="10"/>
    <path d="M90.707031 124.949219L32.8125.796875m72.832031 98.8125L52.132812 42.226562m13.234375 72.820313L60.582031 60.34375m2.066406 23.644531l-6.003906 12.878906m15.101563-12.578125l-1.234375 14.128907m7.226562-1.28125l11.609375 8.128906m-8.59375-32.347656l3.1875 13.8125M89.339844 82.125l13.574218 4.152344M41.21875 18.824219v28.34375m0-15.589844l5.949219-.003906" fill="none" stroke-width="1.59404" stroke-linecap="round" stroke="#000" stroke-miterlimit="10"/>
    <use xlink:href="#a" x="7.272" y="35.831"/>
    <use xlink:href="#b" x="13.43903" y="35.831"/>
    <use xlink:href="#c" x="26.39029" y="35.831"/>
    <use xlink:href="#d" x="51.033" y="35.831"/>
    <use xlink:href="#e" x="58.972308" y="35.831"/>
</svg>
