<svg xmlns="http://www.w3.org/2000/svg" xmlns:xlink="http://www.w3.org/1999/xlink" width="208.487pt" height="199.828pt" viewBox="0 0 208.487 199.828">
    <defs>
        <symbol overflow="visible" id="a">
            <path d="M14.21875 0v-17.203125h-2.078125V-9.6875h-7.875v-7.515625H2.1875V0h2.078125v-8.171875h7.875V0zm0 0"/>
        </symbol>
        <symbol overflow="visible" id="b">
            <path d="M3.671875 0v-10.65625h-1.84375V0zM3.8125-13.984375V-16.0625H1.734375v2.078125zm0 0"/>
        </symbol>
        <symbol overflow="visible" id="c">
            <path d="M11.625-4.734375c0-.984375-.296875-2.25-1.34375-3.421875C9.265625-9.265625 8.375-9.515625 6.34375-10.0625c-1.171875-.296875-1.90625-.5-2.53125-1.265625-.421875-.546875-.640625-1.0625-.640625-1.734375 0-1.390625 1.1875-2.890625 3.375-2.890625 1.078125 0 2.5.21875 3.9375 1.5625l.34375-1.984375c-1.09375-.65625-2.28125-1.21875-4.28125-1.21875-3.203125 0-5.265625 2.359375-5.265625 4.75 0 .953125.28125 2.015625 1.25 3.109375C3.5-8.65625 4.578125-8.34375 5.96875-8c.578125.140625 1.546875.421875 1.71875.484375 1.375.546875 2.046875 1.8125 2.046875 3 0 1.5625-1.203125 3.234375-3.359375 3.234375-.75 0-2.9375-.125-4.984375-2.015625l-.34375 1.953125C3.078125.15625 5.28125.390625 6.390625.390625 9.4375.390625 11.625-2 11.625-4.734375zm0 0"/>
        </symbol>
        <symbol overflow="visible" id="d">
            <path d="M13.5625-12.1875c0-2.6875-2.34375-5.015625-5.5625-5.015625H2.203125V0H4.28125v-7.15625h3.875c2.96875 0 5.40625-2.3125 5.40625-5.03125zm-1.96875 0c0 1.6875-1.15625 3.59375-4.140625 3.59375h-3.21875v-7.21875h3.21875c2.875 0 4.140625 1.8125 4.140625 3.625zm0 0"/>
        </symbol>
        <symbol overflow="visible" id="e">
            <path d="M14.8125 0L8.796875-17.203125h-2.125L.640625 0H2.53125l1.734375-5h6.640625l1.75 5zm-4.375-6.390625H4.734375c1.1875-3.46875 2.671875-7.78125 2.84375-8.90625h.03125c.171875 1.015625.671875 2.515625 1.09375 3.78125zm0 0"/>
        </symbol>
        <symbol overflow="visible" id="f">
            <path d="M14.34375 0L9.765625-8.078125l.046875-.03125C13.671875-9.4375 13.703125-12.125 13.703125-12.59375c0-2.34375-2.375-4.609375-5.953125-4.609375H2.203125V0h2.03125v-7.859375H7.875L12.265625 0zM11.75-12.59375c0 1.34375-1 3.21875-4.265625 3.21875h-3.25v-6.4375h3.25c3.140625 0 4.265625 1.78125 4.265625 3.21875zm0 0"/>
        </symbol>
        <symbol overflow="visible" id="g">
            <path d="M13.5625-1.171875l-.15625-1.671875c-.671875.46875-1.3125.9375-2.109375 1.1875-.765625.25-1.5625.265625-2.34375.265625-1.515625 0-2.875-.859375-3.78125-2.078125C4.0625-4.9375 3.5625-6.71875 3.5625-8.5c0-1.8125.5-3.625 1.609375-5.0625.90625-1.1875 2.265625-2.078125 3.78125-2.078125.71875 0 1.40625.078125 2.078125.296875.6875.203125 1.3125.578125 1.921875.953125L13.3125-16.375c-.703125-.28125-1.421875-.5-2.15625-.65625-.71875-.140625-1.46875-.1875-2.203125-.1875-2.046875 0-3.921875.984375-5.265625 2.546875C2.234375-12.953125 1.515625-10.75 1.515625-8.5c0 2.234375.71875 4.4375 2.171875 6.140625 1.34375 1.5625 3.21875 2.5625 5.265625 2.5625.8125 0 1.625-.03125 2.421875-.25.796875-.25 1.484375-.671875 2.1875-1.125zm0 0"/>
        </symbol>
    </defs>
    <path d="M105.589844 191.84375c.410156-.632813-.28125-1.308594-1.542969-1.515625-1.265625-.203125-2.621094.140625-3.03125.773437-.414063.632813.277344 1.308594 1.542969 1.515625 1.261719.203126 2.621094-.140625 3.03125-.773437zm-10.375-1.683594l5.191406.84375" fill="none" stroke-width="1.2756" stroke-linecap="round" stroke="#000" stroke-miterlimit="10"/>
    <path d="M102.5 187.089844c.410156-.632813-.28125-1.308594-1.542969-1.515625-1.265625-.203125-2.621093.140625-3.03125.773437-.410156.632813.28125 1.308594 1.542969 1.515625 1.265625.203125 2.621094-.140625 3.03125-.773437zm0 0" stroke-width="1.2756" stroke-linecap="round" stroke="#000" stroke-miterlimit="10"/>
    <path d="M95.214844 190.160156l3.207031-2.207031" fill="none" stroke-width="1.2756" stroke-linecap="round" stroke="#000" stroke-miterlimit="10"/>
    <path d="M89.414062 191.84375c.410157-.632813-.28125-1.308594-1.542968-1.515625-1.265625-.203125-2.621094.140625-3.03125.773437-.414063.628907.277344 1.308594 1.542969 1.515625 1.261718.203126 2.621093-.140625 3.03125-.773437zm0 0" stroke-width="1.2756" stroke-linecap="round" stroke="#000" stroke-miterlimit="10"/>
    <path d="M95.214844 190.160156L90.03125 191" fill="none" stroke-width="1.2756" stroke-linecap="round" stroke="#000" stroke-miterlimit="10"/>
    <path d="M97.5 194.78125c.414063-.632813-.277344-1.308594-1.542969-1.515625-1.261719-.203125-2.621094.140625-3.03125.773438-.410156.632812.28125 1.308593 1.54297 1.515624 1.265624.203125 2.621093-.140625 3.031249-.773437zm0 0" stroke-width="1.2756" stroke-linecap="round" stroke="#000" stroke-miterlimit="10"/>
    <path d="M95.214844 190.160156v2.726563M5.363281 1.726563L77.242188 155.875m17.281249 37.050781L77.242187 155.875m21.683594 29.460938l-15.886719-17.03125m3.953126 21.644531l-1.41797-16.210938m.621095 7.09375l-1.800782 3.863281m4.53125-3.773437l-.371094 4.238281m2.167969-.382812l3.480469 2.4375M91.625 177.511719l.957031 4.144531m1.621094-1.382812l4.070312 1.246093M79.765625 161.28125v8.503906" fill="none" stroke-width="1.2756" stroke-linecap="round" stroke="#000" stroke-miterlimit="10"/>
    <use xlink:href="#a" x="111.625" y="196.192"/>
    <use xlink:href="#b" x="128.061326" y="196.192"/>
    <use xlink:href="#c" x="133.578934" y="196.192"/>
    <use xlink:href="#d" x="146.530194" y="196.192"/>
    <use xlink:href="#e" x="159.459146" y="196.192"/>
    <use xlink:href="#f" x="174.93869" y="196.192"/>
    <use xlink:href="#g" x="189.969587" y="196.192"/>
</svg>
